<?xml version="1.0" standalone="no"?><!DOCTYPE svg PUBLIC "-//W3C//DTD SVG 1.1//EN"
  "http://www.w3.org/Graphics/SVG/1.1/DTD/svg11.dtd">
<svg t="1678806057517" class="icon" viewBox="0 0 1024 1024" version="1.1" xmlns="http://www.w3.org/2000/svg" p-id="9929"
     width="80" height="80" xmlns:xlink="http://www.w3.org/1999/xlink">
  <path
    d="M527.058824 527.058824m-376.470589 0a376.470588 376.470588 0 1 0 752.941177 0 376.470588 376.470588 0 1 0-752.941177 0Z"
    fill="#9881F5" opacity=".33" p-id="9930"></path>
  <path
    d="M527.058824 527.058824m-286.117648 0a286.117647 286.117647 0 1 0 572.235295 0 286.117647 286.117647 0 1 0-572.235295 0Z"
    fill="#9881F5" p-id="9931"></path>
  <path
    d="M665.6 626.447059c-3.011765-3.011765-6.023529-3.011765-6.023529-3.011765-12.047059 0-24.094118 3.011765-33.129412 9.035294-9.035294 6.023529-21.082353 9.035294-30.117647 6.02353-12.047059 0-21.082353-3.011765-30.117647-6.02353-12.047059-6.023529-27.105882-9.035294-39.152941-9.035294-15.058824 0-27.105882 3.011765-39.152942 9.035294-9.035294 6.023529-21.082353 9.035294-30.117647 6.02353-12.047059 0-21.082353-3.011765-30.117647-6.02353-9.035294-6.023529-21.082353-9.035294-33.129412-9.035294-3.011765 0-6.023529 0-6.023529 3.011765-3.011765 3.011765-3.011765 6.023529-3.011765 6.023529 0 6.023529 3.011765 9.035294 9.035294 9.035294 9.035294 0 18.070588 3.011765 27.105883 6.02353 12.047059 6.023529 27.105882 9.035294 39.152941 9.035294 15.058824 0 27.105882-3.011765 39.152941-9.035294 9.035294-6.023529 21.082353-9.035294 30.117647-6.02353 12.047059 0 21.082353 3.011765 30.117647 6.02353 12.047059 6.023529 27.105882 9.035294 39.152941 9.035294 15.058824 0 27.105882-3.011765 39.152942-9.035294 9.035294-3.011765 18.070588-6.023529 27.105882-6.02353 6.023529 0 9.035294-3.011765 9.035294-9.035294-6.023529 0-6.023529-3.011765-9.035294-6.023529z m-228.894118 3.011765c15.058824 3.011765 30.117647 3.011765 45.176471-6.02353 9.035294-6.023529 21.082353-9.035294 33.129412-9.035294v-120.470588c0-6.023529 3.011765-9.035294 9.035294-9.035294 6.023529 0 9.035294 3.011765 9.035294 9.035294v120.470588c12.047059 0 21.082353 3.011765 33.129412 9.035294 9.035294 6.023529 18.070588 6.023529 30.117647 6.02353 6.023529 0 12.047059 0 15.058823-3.011765l33.129412-99.388235c3.011765-6.023529 0-15.058824-6.023529-18.070589l-18.070589-9.035294v-60.235294c0-6.023529-3.011765-12.047059-6.023529-18.070588l-3.011765-3.011765c-6.023529 3.011765-12.047059 3.011765-18.070588 3.011765h-15.058823v-21.082353c0-6.023529-6.023529-9.035294-9.035295-9.035294h-90.352941c-6.023529 0-9.035294 3.011765-9.035294 9.035294V421.647059h-21.082353c-12.047059 0-24.094118 9.035294-24.094117 24.094117v60.235295l-18.070589 9.035294c-6.023529 3.011765-9.035294 12.047059-6.023529 18.070588l36.141176 96.376471z m9.035294-183.717648c0-3.011765 3.011765-6.023529 6.02353-6.023529h144.564706c3.011765 0 6.023529 3.011765 6.023529 6.023529v48.188236l-69.270588-36.141177c-3.011765-3.011765-9.035294-3.011765-12.047059 0l-72.282353 39.152941-3.011765-51.2z"
    fill="#FFFFFF" p-id="9932"></path>
</svg>
